<svg width="16" height="16" viewBox="0 0 31 31" fill="none" xmlns="http://www.w3.org/2000/svg"><g clip-path="url(#a)"><path d="M4.833 9.92A2.837 2.837 0 0 1 2 7.088a2.837 2.837 0 0 1 2.833-2.833 2.837 2.837 0 0 1 2.834 2.833 2.837 2.837 0 0 1-2.834 2.834m0-4.554a1.723 1.723 0 0 0 0 3.446 1.724 1.724 0 0 0 0-3.445m0 12.546A2.837 2.837 0 0 1 2 15.082a2.837 2.837 0 0 1 2.833-2.834 2.837 2.837 0 0 1 2.834 2.834 2.837 2.837 0 0 1-2.834 2.833m0-4.554a1.722 1.722 0 0 0 0 3.443 1.722 1.722 0 1 0 0-3.443m0 12.542A2.837 2.837 0 0 1 2 23.07a2.837 2.837 0 0 1 2.833-2.834 2.837 2.837 0 0 1 2.834 2.834 2.837 2.837 0 0 1-2.834 2.833m0-4.554a1.723 1.723 0 0 0 0 3.445 1.724 1.724 0 0 0 0-3.445M26.376 9.92a2.837 2.837 0 0 1-2.833-2.833 2.837 2.837 0 0 1 2.833-2.833 2.837 2.837 0 0 1 2.834 2.833 2.837 2.837 0 0 1-2.834 2.834m0-4.554A1.724 1.724 0 1 0 28.1 7.09c0-.95-.772-1.723-1.723-1.723m-.001 12.548a2.837 2.837 0 0 1-2.833-2.833 2.837 2.837 0 0 1 2.833-2.834 2.837 2.837 0 0 1 2.834 2.834 2.837 2.837 0 0 1-2.834 2.833m0-4.554c-.948 0-1.722.772-1.722 1.72 0 .95.772 1.723 1.722 1.723s1.723-.772 1.723-1.722-.772-1.721-1.723-1.721m0 12.542a2.837 2.837 0 0 1-2.833-2.833 2.837 2.837 0 0 1 2.833-2.834 2.837 2.837 0 0 1 2.834 2.834 2.837 2.837 0 0 1-2.834 2.833m0-4.554c-.948 0-1.722.772-1.722 1.722a1.724 1.724 0 0 0 3.445 0c0-.95-.772-1.722-1.723-1.722m-10.771-7.432a2.837 2.837 0 0 1-2.834-2.834 2.837 2.837 0 0 1 2.834-2.833 2.837 2.837 0 0 1 2.833 2.833 2.837 2.837 0 0 1-2.833 2.834m0-4.554c-.949 0-1.723.772-1.723 1.722a1.724 1.724 0 0 0 3.446 0c0-.95-.773-1.722-1.723-1.722m0-3.434a2.837 2.837 0 0 1-2.834-2.834A2.837 2.837 0 0 1 15.606.262a2.837 2.837 0 0 1 2.833 2.833 2.837 2.837 0 0 1-2.833 2.834m0-4.555a1.724 1.724 0 1 0 1.723 1.723c0-.95-.773-1.723-1.723-1.723m-.001 20.536a2.837 2.837 0 0 1-2.834-2.834 2.837 2.837 0 0 1 2.834-2.834 2.837 2.837 0 0 1 2.833 2.834 2.837 2.837 0 0 1-2.833 2.833m0-4.555c-.949 0-1.723.772-1.723 1.722s.773 1.723 1.723 1.723 1.723-.772 1.723-1.723c0-.95-.773-1.722-1.723-1.722m0 12.546a2.837 2.837 0 0 1-2.834-2.834 2.837 2.837 0 0 1 2.834-2.834 2.837 2.837 0 0 1 2.833 2.834 2.837 2.837 0 0 1-2.833 2.833m0-4.555a1.724 1.724 0 1 0 1.723 1.723c0-.95-.773-1.723-1.723-1.723" fill="#2A3275"/><path d="M11.094 10.413a.9.9 0 0 1-.342-.065l-1.845-.736a.926.926 0 1 1 .687-1.719l1.845.735a.926.926 0 0 1-.344 1.785zm0 7.837a.9.9 0 0 1-.342-.065l-1.845-.735a.926.926 0 1 1 .687-1.72l1.845.735a.926.926 0 0 1-.344 1.786zm10.82-3.917a.9.9 0 0 1-.342-.066l-1.844-.735a.925.925 0 0 1 .685-1.72l1.845.736a.926.926 0 0 1-.344 1.785m0-7.836a.9.9 0 0 1-.342-.065l-1.844-.736a.925.925 0 0 1 .685-1.719l1.845.735a.926.926 0 0 1-.344 1.785m0 15.67a.9.9 0 0 1-.342-.066l-1.844-.735a.925.925 0 0 1 .685-1.72l1.845.736a.926.926 0 0 1-.344 1.785m-12.616.281a.926.926 0 0 1-.344-1.785l1.845-.736a.925.925 0 1 1 .687 1.72l-1.845.735a.9.9 0 0 1-.342.066zm0-7.791a.926.926 0 0 1-.344-1.785l1.845-.735a.925.925 0 1 1 .687 1.72l-1.845.734a.9.9 0 0 1-.342.066zm0-8.182a.926.926 0 0 1-.344-1.785l1.845-.735a.925.925 0 1 1 .687 1.72l-1.845.734a.9.9 0 0 1-.342.066zm1.796 20.169a.9.9 0 0 1-.342-.066l-1.845-.735a.925.925 0 0 1 .686-1.72l1.844.735a.926.926 0 0 1-.343 1.786m8.976-16.23a.926.926 0 0 1-.344-1.786l1.844-.736a.927.927 0 0 1 .687 1.721l-1.844.736a.9.9 0 0 1-.342.065zm0 7.838a.926.926 0 0 1-.344-1.787l1.844-.735a.927.927 0 0 1 .687 1.721l-1.844.735a.9.9 0 0 1-.342.066zm0 8.391a.925.925 0 0 1-.343-1.785l1.843-.735a.925.925 0 1 1 .686 1.72l-1.845.734a.9.9 0 0 1-.342.066" fill="#5699DB"/></g><defs><clipPath id="a"><path fill="#fff" d="M2 0h28v30H2z"/></clipPath></defs></svg>